<?xml version="1.0" encoding="UTF-8" standalone="no"?>
<!DOCTYPE svg PUBLIC "-//W3C//DTD SVG 1.1//EN" "http://www.w3.org/Graphics/SVG/1.1/DTD/svg11.dtd">
<svg width="100%" height="100%" viewBox="0 0 512 384" version="1.1" xmlns="http://www.w3.org/2000/svg" xmlns:xlink="http://www.w3.org/1999/xlink" xml:space="preserve" style="fill-rule:evenodd;clip-rule:evenodd;stroke-linejoin:round;stroke-miterlimit:1.41421;">
    <path d="M440.6,220.6C422.7,220.701 407.2,225 394.2,231.401C389.4,221.901 384.6,213.6 383.801,207.401C382.901,200.201 381.801,195.8 382.901,187.201C384,178.6 389,166.4 389,165.4C388.899,164.5 387.899,160.1 377.6,160C367.301,159.9 358.4,162 357.4,164.7C356.4,167.4 354.4,173.6 353.1,180C351.3,189.4 332.5,222.7 321.8,240.2C318.3,233.4 315.3,227.4 314.699,222.599C313.8,215.4 312.699,210.999 313.8,202.4C314.9,193.799 319.9,181.6 319.9,180.6C319.8,179.7 318.8,175.3 308.501,175.2C298.2,175.1 289.301,177.2 288.301,179.9C287.301,182.6 286.201,189 284.001,195.2C281.9,201.4 256.9,257 250.4,271.5C247.1,278.9 244.201,284.8 242.1,288.8C240,292.8 242,289.1 241.8,289.5C240,292.9 239,294.8 239,294.8L239,294.901C237.6,297.401 236.1,299.8 235.399,299.8C234.899,299.8 233.899,293.1 235.599,283.901C239.299,264.6 248.299,234.501 248.2,233.401C248.2,232.901 249.899,227.6 242.399,224.901C235.099,222.201 232.5,226.701 231.899,226.701C231.299,226.701 230.799,228.301 230.799,228.301C230.799,228.301 238.899,194.402 215.299,194.402C200.499,194.402 180.099,210.502 169.999,225.202C163.599,228.702 149.999,236.101 135.599,244.002C130.099,247.002 124.399,250.202 118.999,253.102L117.9,251.9C89.3,221.4 36.4,199.8 38.6,158.8C39.4,143.9 44.6,104.6 140.201,57C218.501,18 281.201,28.7 292.1,52.5C307.6,86.5 258.6,149.7 177.201,158.8C146.201,162.3 129.9,150.3 125.801,145.8C121.501,141.1 120.901,140.9 119.301,141.8C116.701,143.2 118.301,147.4 119.301,149.9C121.701,156.2 131.701,167.4 148.701,173C163.6,177.9 200.001,180.6 244.001,163.6C293.301,144.5 331.801,91.5 320.501,47.2C309.001,2.1 234.201,-12.7 163.501,12.4C121.4,27.4 75.8,50.8 43,81.5C4,117.9 -2.2,149.7 0.4,162.9C9.501,210 74.4,240.7 100.4,263.4C99.1,264.099 97.9,264.799 96.8,265.4C83.8,271.799 34.3,297.7 21.9,325.099C7.9,356.099 24.1,378.4 34.9,381.4C68.3,390.7 102.5,374 121,346.5C139.399,319 137.2,283.3 128.7,267L128.399,266.4L138.599,260.4C145.2,256.5 151.7,252.9 157.399,249.799C154.2,258.499 151.899,268.799 150.7,283.799C149.3,301.4 156.5,324.199 166,333.199C170.2,337.098 175.2,337.199 178.3,337.199C189.3,337.199 194.3,328.098 199.8,317.199C206.6,303.899 212.6,288.499 212.6,288.499C212.6,288.499 205.1,330.199 225.6,330.199C233.1,330.199 240.6,320.499 244,315.499L244,315.599C244,315.599 244.2,315.299 244.6,314.599C245.4,313.4 245.8,312.7 245.8,312.7L245.8,312.5C248.8,307.3 255.5,295.4 265.5,275.7C278.399,250.3 290.8,218.5 290.8,218.5C290.8,218.5 292,226.3 295.7,239.1C297.899,246.701 302.699,255 306.399,263.1C303.399,267.3 301.599,269.701 301.599,269.701L301.699,269.801C299.3,273.001 296.599,276.402 293.8,279.801C283.6,292.001 271.4,305.902 269.8,309.902C267.9,314.601 268.3,318.101 272,320.902C274.7,322.902 279.5,323.301 284.6,322.902C293.8,322.301 300.2,320.002 303.4,318.601C308.4,316.801 314.1,314.101 319.6,310.101C329.6,302.702 335.7,292.202 335.1,278.202C334.8,270.502 332.3,262.902 329.2,255.702C330.1,254.402 331.001,253.101 331.9,251.702C347.7,228.601 359.9,203.202 359.9,203.202C359.9,203.202 361.1,211.002 364.8,223.802C366.699,230.302 370.5,237.403 373.9,244.403C359.1,256.503 349.8,270.503 346.6,279.703C340.7,296.703 345.3,304.403 354,306.203C357.899,307.003 363.5,305.203 367.699,303.403C372.899,301.703 379.199,298.802 385,294.503C395,287.103 404.6,276.803 404.1,262.903C403.8,256.503 402.1,250.203 399.8,244.203C412.4,239.003 428.699,236.003 449.4,238.503C493.9,243.703 502.7,271.503 501.001,283.103C499.301,294.704 490.001,301.103 486.9,303.103C483.8,305.003 482.8,305.704 483.1,307.103C483.5,309.204 484.9,309.103 487.6,308.704C491.3,308.103 511,299.204 511.8,277.805C513,250.301 486.9,220.301 440.6,220.6ZM97.4,336.3C82.7,352.4 62,358.5 53.2,353.3C43.7,347.8 47.399,324.1 65.5,307C76.5,296.6 90.8,287 100.2,281.1C102.3,279.8 105.5,277.901 109.3,275.6C109.9,275.201 110.3,275 110.3,275C111,274.6 111.8,274.1 112.6,273.6C119.3,298 112.9,319.4 97.4,336.3ZM204.9,263.2C199.8,275.7 189,307.8 182.5,306C176.899,304.5 173.5,280.2 181.399,256.2C185.399,244.099 193.899,229.7 198.899,224.099C207,215.099 215.799,212.099 218,215.799C220.6,220.6 208.1,255.4 204.9,263.2ZM293.6,305.6C291.4,306.701 289.4,307.5 288.5,306.901C287.8,306.501 289.399,305.001 289.399,305.001C289.399,305.001 300.499,293.101 304.899,287.601C307.399,284.402 310.399,280.702 313.599,276.501L313.599,277.701C313.6,292.1 299.8,301.7 293.6,305.6ZM361.999,290C360.399,288.8 360.6,285.1 365.999,273.5C368.1,268.9 372.899,261.2 381.199,253.9C382.199,256.9 382.8,259.799 382.699,262.5C382.6,280.5 369.8,287.2 361.999,290Z" style="fill:rgb(61,76,81);fill-rule:nonzero;"/>
</svg>
